<?xml version="1.0" encoding="utf-8"?>
<!-- Generator: Adobe Illustrator 18.1.1, SVG Export Plug-In . SVG Version: 6.00 Build 0)  -->
<svg version="1.1" id="Layer_1" xmlns="http://www.w3.org/2000/svg" xmlns:xlink="http://www.w3.org/1999/xlink" x="0px" y="0px"
	 viewBox="0 0 931.5 887.3" enable-background="new 0 0 931.5 887.3" xml:space="preserve">
<g>
	<g>
		<defs>
			<path id="SVGID_1_" d="M560,449.1c0,0,66.9-39.8,76.4-139.3c9.5-99.5-20.5-157.9,105.8-266.8c0,0-69.5,53.7-53.7,164.2
				c15.8,110.5,63.2,227.4-99.5,288.2C426.4,556.1,521.5,468.8,560,449.1"/>
		</defs>
		<clipPath id="SVGID_2_">
			<use xlink:href="#SVGID_1_"  overflow="visible"/>
		</clipPath>
		<linearGradient id="SVGID_3_" gradientUnits="userSpaceOnUse" x1="362.0207" y1="642.6111" x2="765.8777" y2="32.3478">
			<stop  offset="0" style="stop-color:#FF0000"/>
			<stop  offset="1" style="stop-color:#FFFF00"/>
		</linearGradient>
		<rect x="426.4" y="43" clip-path="url(#SVGID_2_)" fill="url(#SVGID_3_)" width="325.3" height="513.2"/>
	</g>
	<g>
		<defs>
			<path id="SVGID_4_" d="M434.2,560.5c0,0,39.2,17.6,70.3-13.6c0,0-11.4,37.1,26.1,74.2l-32.2,47.3h37.1l31.4-43
				c0,0-3.2-41.8,4.7-61.6c7.9-19.7,38.7-56.1,14.2-91.6c-10.9-15.9-28.3-22.9-48.8-27.5l-61.7,20.4
				C475.3,465.2,419.3,507.1,434.2,560.5"/>
		</defs>
		<clipPath id="SVGID_5_">
			<use xlink:href="#SVGID_4_"  overflow="visible"/>
		</clipPath>
		<linearGradient id="SVGID_6_" gradientUnits="userSpaceOnUse" x1="504.9478" y1="727.5236" x2="546.0083" y2="17.0237">
			<stop  offset="0" style="stop-color:#FF0000"/>
			<stop  offset="1" style="stop-color:#FFFF00"/>
		</linearGradient>
		<rect x="419.3" y="444.8" clip-path="url(#SVGID_5_)" fill="url(#SVGID_6_)" width="191.1" height="223.6"/>
	</g>
	<g>
		<defs>
			<path id="SVGID_7_" d="M537.1,444.8c-0.2,0.1-119,72.8-136,223.6h-34.5c-8.5-27-41.6-148.3-1.7-288.5l21.3-43.4
				c26.6,4.8,14,1.4,6.7,25.7c0,0,9.1,46.9,60.4,65C481.6,437.4,511.7,439.2,537.1,444.8"/>
		</defs>
		<clipPath id="SVGID_8_">
			<use xlink:href="#SVGID_7_"  overflow="visible"/>
		</clipPath>
		<linearGradient id="SVGID_9_" gradientUnits="userSpaceOnUse" x1="370.9996" y1="769.6722" x2="543.9282" y2="-0.3732">
			<stop  offset="0" style="stop-color:#FF0000"/>
			<stop  offset="1" style="stop-color:#FFFF00"/>
		</linearGradient>
		<rect x="324.9" y="336.5" clip-path="url(#SVGID_8_)" fill="url(#SVGID_9_)" width="212.1" height="331.9"/>
	</g>
	<g>
		<defs>
			<path id="SVGID_10_" d="M373.9,200c-31.6-14.6-64.7-78.2-64.7-78.2c-3.2,94.7,24.5,107,24.5,107C267.3,429.3,368.4,674,368.4,674
				c-61.6-394.7,138.9-390,138.9-390C470.1,261.3,405.1,214.4,373.9,200"/>
		</defs>
		<clipPath id="SVGID_11_">
			<use xlink:href="#SVGID_10_"  overflow="visible"/>
		</clipPath>
		<linearGradient id="SVGID_12_" gradientUnits="userSpaceOnUse" x1="430.9026" y1="858.9146" x2="357.5037" y2="82.0591">
			<stop  offset="0" style="stop-color:#FF0000"/>
			<stop  offset="1" style="stop-color:#FFFF00"/>
		</linearGradient>
		<rect x="267.3" y="121.8" clip-path="url(#SVGID_11_)" fill="url(#SVGID_12_)" width="240" height="552.2"/>
	</g>
	<path opacity="0.3" fill-rule="evenodd" clip-rule="evenodd" fill="#FFFF00" d="M373.9,200c-31.6-14.6-64.7-78.2-64.7-78.2
		c-3.2,94.7,24.5,107,24.5,107c-26.8,81.1-26.3,169.4-16.1,245.8c11.5-72.7,28.3-152.4,49.1-175.6c41.1-45.8,140.6-14.9,140.6-14.9
		C470.1,261.3,405.1,214.4,373.9,200"/>
	<path opacity="0.3" fill-rule="evenodd" clip-rule="evenodd" fill="#870000" d="M383.8,668.4c0,0-36.7-154,20-280.4
		c-8.7-14-11-25.7-11-25.7c-30.6,54.8-49.2,147.9-25.3,306.2H383.8z"/>
	<path opacity="0.3" fill-rule="evenodd" clip-rule="evenodd" fill="#870000" d="M434.2,560.5c0,0,10,4.5,24,4.9
		c28.2-67.5,84.9-119.1,84.9-119.1c-2-0.5-4-1-6-1.4C536.9,444.9,475.1,482.8,434.2,560.5"/>
	<path opacity="0.3" fill-rule="evenodd" clip-rule="evenodd" fill="#870000" d="M557,450.7c11.8,4.6,21.7,11.2,28.9,21.6
		c4.8,7,7.5,14,8.6,20.9c3.9-1.5,7.7-3.1,11.3-4.7c-7.4-22-26-37.3-37.7-45.2c-5,3.9-8.1,5.8-8.1,5.8C559,449.6,558,450.1,557,450.7
		"/>
	<path opacity="0.3" fill-rule="evenodd" clip-rule="evenodd" fill="#870000" d="M325,520.8c7.2-55.7,22.8-164,40.1-201
		c21.1-44.9,72.1-46.6,92-45.2c-31-2.7-68.8,0.2-90.4,24.3c-20.9,23.3-37.7,103-49.1,175.6C319.7,490.6,322.2,506.1,325,520.8"/>
	<path opacity="0.3" fill-rule="evenodd" clip-rule="evenodd" fill="#870000" d="M479.9,494.9c-4.3,4.8-8.6,9.9-12.9,15.3
		c6.8,0.8,13.6,1.3,20.5,1.8c3.6-5.4,7.3-10.5,11-15.4c-1.7-0.2-3.4-0.3-5.1-0.4C489.1,496.1,484.6,495.6,479.9,494.9"/>
	<path opacity="0.3" fill-rule="evenodd" clip-rule="evenodd" fill="#870000" d="M498.5,496.7c-3.6,4.9-7.3,10-11,15.4
		c3.6,0.2,7.2,0.4,10.8,0.6c2.3,0.1,4.7,0.2,7,0.2c7.1,0.2,13.5,1,19.1,2.2c40.3,8.5,46.4,38.7,46.4,38.7
		c-1.2-18.4-11.2-33.2-27.2-43.2c-11.1-6.9-25.2-11.6-41.2-13.5C501.1,496.9,499.8,496.8,498.5,496.7"/>
	<path opacity="0.3" fill-rule="evenodd" clip-rule="evenodd" fill="#FFFF00" d="M479.9,494.9c30.1-33.5,57-50.1,57.1-50.1
		c-25.4-5.6-55.4-7.5-83.8-17.5c-25.7-9.1-40.8-25.3-49.4-39.3c-11.3,25.2-18.9,51.4-23.8,77.3c18.5,7.3,45.6,17.2,71.8,23.9
		C461.5,491.7,471,493.7,479.9,494.9"/>
	<path opacity="0.3" fill-rule="evenodd" clip-rule="evenodd" fill="#870000" d="M376.2,489.5c20,7.5,41.9,13.2,64.7,17.1
		c8.6,1.5,17.4,2.7,26.2,3.7c4.3-5.5,8.7-10.6,12.9-15.3c-8.9-1.3-18.5-3.3-28.1-5.7c-26.2-6.7-53.3-16.6-71.8-23.9
		C378.5,473.4,377.2,481.5,376.2,489.5"/>
	<path opacity="0.3" fill-rule="evenodd" clip-rule="evenodd" fill="#870000" d="M362.2,458c-1.2,7.8-2.2,16-3.1,24.5
		c5.5,2.5,11.2,4.8,17,7c1-8,2.3-16.1,3.9-24.2C372.4,462.3,366.3,459.7,362.2,458"/>
	<path opacity="0.3" fill-rule="evenodd" clip-rule="evenodd" fill="#FFFF00" d="M543.1,446.3c0,0-21.5,19.6-44.6,50.4
		c1.3,0.1,2.6,0.3,3.9,0.4c16.1,1.9,30.1,6.5,41.2,13.5c16,10,26,24.8,27.2,43.2c0.4,5.7-0.1,11.8-1.5,18.2c0.7-3,1.5-5.7,2.4-8.1
		c6.3-15.9,27.4-42.4,22.8-70.6c-1.1-6.9-3.8-13.9-8.6-20.9c-7.2-10.4-17.1-17-28.9-21.6C552.6,449,547.9,447.5,543.1,446.3"/>
	<path opacity="0.3" fill-rule="evenodd" clip-rule="evenodd" fill="#870000" d="M666.9,207.2c3,91.9,26.1,203.2-74.1,258.3
		c-2.8,1.5-5.7,3-8.6,4.5c0.6,0.8,1.2,1.6,1.8,2.4c3,4.3,5.2,8.7,6.6,13c2.9-1.3,6.3-2.9,10-4.9c25.4-13.4,66.1-42.3,74.6-92.5
		c12.6-74.2-10.2-168.6-7.1-224.1C667.6,177.2,666.4,191.6,666.9,207.2"/>
	<path opacity="0.3" fill-rule="evenodd" clip-rule="evenodd" fill="#FFFF00" d="M592.8,465.5C693,410.3,669.8,299,666.9,207.2
		c-0.5-15.5,0.7-30,3.2-43.3c0.1-2.3,0.5-4.3,1.2-6.2c14.4-66.5,58.3-102.5,58.3-102.5c3.4-3.8,6.4-6.7,8.5-8.8
		c-121.7,106.7-92.4,165-101.8,263.4c-7.4,78-50.2,119.3-68.3,133.5C575.2,448.1,584.7,455.5,592.8,465.5"/>
	<rect x="119.7" y="0" fill="none" width="811.8" height="811.8"/>
</g>
<text transform="matrix(1 0 0 1 140.0312 757.3422)" fill="#FFFFF8" font-family="'HamonBold'" font-size="113.5649">FUELSTOCK</text>
</svg>
